<?xml version="1.0" encoding="utf-8" ?>
<svg baseProfile="full" height="297mm" version="1.1" width="210mm" xmlns="http://www.w3.org/2000/svg" xmlns:ev="http://www.w3.org/2001/xml-events" xmlns:xlink="http://www.w3.org/1999/xlink"><defs /><path d="M0,0 M396.2814025878906,46.287017822265625 L396.23284912109375,46.523193359375 L396.15081787109375,47.138763427734375 L396.032470703125,48.25678253173828 L395.8875427246094,49.88188171386719 L395.73443603515625,51.93789291381836 L395.60321044921875,54.30457305908203 L395.52813720703125,56.86821365356445 L395.5256652832031,59.518280029296875 L395.58831787109375,62.09755325317383 L395.67987060546875,64.41361236572266 L395.7919616699219,66.29754638671875 L395.9171142578125,67.5059585571289 L396.0498962402344,67.91632080078125 L396.17413330078125,67.55856323242188 L396.26971435546875,66.86499786376953 L396.3177795410156,66.22376251220703 M395.1402587890625,45.60966873168945 L395.1356201171875,45.535430908203125 L395.1489562988281,45.59564971923828 L395.2034912109375,45.95259094238281 L395.3326110839844,46.73887252807617 L395.5574035644531,47.91740417480469 L395.904296875,49.34104919433594 L396.3706970214844,50.823150634765625 L396.9652099609375,52.18856430053711 L397.685302734375,53.27519989013672 L398.5501403808594,53.97280502319336 L399.5560607910156,54.19142532348633 L400.6981201171875,53.89194869995117 L401.93359375,53.11038589477539 L403.19781494140625,51.92941665649414 L404.4059753417969,50.48101806640625 L405.489013671875,48.94598388671875 L406.3632507324219,47.493309020996094 L407.002685546875,46.27623748779297 L407.4121398925781,45.41844177246094 L407.62420654296875,45.0 L407.6851806640625,45.08232879638672 L407.63726806640625,45.71928787231445 L407.4963684082031,46.921112060546875 L407.2987365722656,48.635498046875 L407.0805969238281,50.75043869018555 L406.87689208984375,53.120880126953125 L406.7037353515625,55.58992004394531 L406.57513427734375,58.01572036743164 L406.5022277832031,60.267555236816406 L406.487548828125,62.20462417602539 L406.52423095703125,63.716346740722656 L406.61529541015625,64.70154571533203 L406.7477722167969,65.13126373291016 L406.9299621582031,65.0752182006836 L407.1107482910156,64.79578399658203 L407.2464294433594,64.51022338867188 M416.2919006347656,57.43092727661133 L416.2451477050781,57.10948181152344 L416.0727844238281,56.65155029296875 L415.70172119140625,56.19917678833008 L415.0989074707031,55.9725341796875 L414.2837829589844,56.08062744140625 L413.3199768066406,56.58045959472656 L412.3186340332031,57.456520080566406 L411.3974914550781,58.65275955200195 L410.67950439453125,60.055660247802734 L410.2758483886719,61.504302978515625 L410.2449645996094,62.83064270019531 L410.5910339355469,63.86698913574219 L411.2662658691406,64.48149108886719 L412.1793518066406,64.59414672851562 L413.230224609375,64.18675994873047 L414.3202819824219,63.29650115966797 L415.3570556640625,62.035980224609375 L416.25640869140625,60.55501174926758 L416.9430847167969,59.04326629638672 L417.3797912597656,57.68975067138672 L417.5980529785156,56.63838195800781 L417.656982421875,55.970481872558594 L417.6387023925781,55.73234176635742 L417.5973815917969,55.926002502441406 L417.5513000488281,56.56246566772461 L417.4979248046875,57.621097564697266 L417.46099853515625,59.009464263916016 L417.4588317871094,60.576351165771484 L417.526123046875,62.14739990234375 L417.6789245605469,63.5474967956543 L417.91693115234375,64.68215942382812 L418.2320251464844,65.4309310913086 L418.6079406738281,65.7176284790039 L419.01153564453125,65.53793334960938 L419.346923828125,65.14146423339844 L419.560302734375,64.75581359863281 M422.0597229003906,47.88848114013672 L422.1060791015625,47.95231628417969 L422.1617431640625,48.244384765625 L422.204833984375,48.912757873535156 L422.2021179199219,50.036048889160156 L422.1484375,51.5703010559082 L422.05841064453125,53.41685104370117 L421.9613037109375,55.43547821044922 L421.8822937011719,57.4670295715332 L421.8702087402344,59.35575485229492 L421.94598388671875,60.95491409301758 L422.1126708984375,62.16365432739258 L422.38531494140625,62.89429473876953 L422.75933837890625,63.1379280090332 L423.20697021484375,62.94620132446289 L423.6117858886719,62.57417678833008 L423.88958740234375,62.235660552978516 M426.7139587402344,56.884849548339844 L426.55419921875,56.80001449584961 L426.1605224609375,56.78672409057617 L425.47802734375,56.961578369140625 L424.5555419921875,57.430057525634766 L423.5266418457031,58.17258071899414 L422.5628356933594,59.11623001098633 L421.8235168457031,60.1405143737793 L421.43280029296875,61.147857666015625 L421.45733642578125,62.046932220458984 L421.9127197265625,62.773197174072266 L422.758544921875,63.27721405029297 L423.9241638183594,63.53418731689453 L425.2991027832031,63.53059005737305 L426.757568359375,63.28118896484375 L428.17437744140625,62.78970718383789 L429.4482727050781,62.06068801879883 L430.49786376953125,61.112125396728516 L431.298828125,60.01099395751953 L431.848876953125,58.88284683227539 L432.17144775390625,57.88850784301758 L432.31488037109375,57.14979553222656 L432.34326171875,56.74602508544922 L432.31402587890625,56.70368194580078 L432.27197265625,57.03474807739258 L432.2380676269531,57.74118423461914 L432.21148681640625,58.78318786621094 L432.1954345703125,60.056121826171875 L432.1959533691406,61.411109924316406 L432.22930908203125,62.68116760253906 L432.3123779296875,63.73218536376953 L432.4567565917969,64.39689636230469 L432.64654541015625,64.58208465576172 L432.8566589355469,64.27984619140625 L433.0280456542969,63.77167510986328 L433.1313171386719,63.31629180908203 M431.946533203125,49.38435363769531 L431.9852294921875,49.312171936035156 L432.0879211425781,49.310882568359375 L432.21435546875,49.370399475097656 L432.32427978515625,49.480628967285156 M437.5740051269531,56.11506652832031 L437.6018981933594,56.187408447265625 L437.6297607421875,56.44339370727539 L437.6296081542969,56.991615295410156 L437.5673522949219,57.8746337890625 L437.4420471191406,59.045555114746094 L437.26849365234375,60.39850997924805 L437.09808349609375,61.78170394897461 L436.9720458984375,63.03540802001953 L436.9150695800781,64.02696990966797 L436.9273986816406,64.63861083984375 L437.0071105957031,64.7958755493164 L437.1640625,64.4724349975586 L437.4359436035156,63.68253707885742 L437.8469543457031,62.4999885559082 L438.41009521484375,61.056602478027344 L439.11474609375,59.50847244262695 L439.9296875,58.019554138183594 L440.8224792480469,56.73338317871094 L441.7530822753906,55.75931167602539 L442.6752014160156,55.17778778076172 L443.5417785644531,55.03740692138672 L444.3031005859375,55.35077667236328 L444.9068908691406,56.09115219116211 L445.3171081542969,57.19409942626953 L445.52215576171875,58.55355453491211 L445.55426025390625,60.04104232788086 L445.47125244140625,61.51677322387695 L445.3698425292969,62.832454681396484 L445.33624267578125,63.85942840576172 L445.4225769042969,64.53414154052734 L445.5693664550781,64.87667846679688 L445.70916748046875,64.98806762695312 M454.085693359375,58.16506576538086 L454.12445068359375,57.695613861083984 L454.0660705566406,57.01182174682617 L453.802734375,56.28923034667969 L453.2573547363281,55.80453109741211 L452.4656982421875,55.67400360107422 L451.51422119140625,55.945281982421875 L450.54315185546875,56.596378326416016 L449.69183349609375,57.56375503540039 L449.07855224609375,58.73139190673828 L448.7988586425781,59.95189666748047 L448.8885498046875,61.075843811035156 L449.3341064453125,61.95637512207031 L450.0871276855469,62.491355895996094 L451.0694274902344,62.61019515991211 L452.1667175292969,62.30219650268555 L453.2752990722656,61.613765716552734 L454.2684326171875,60.63374710083008 L455.0514831542969,59.49269485473633 L455.56890869140625,58.34400939941406 L455.82745361328125,57.34434509277344 L455.8575744628906,56.62114334106445 L455.7393798828125,56.27315139770508 L455.55084228515625,56.35569381713867 L455.3677062988281,56.89842224121094 L455.25250244140625,57.88837432861328 L455.2618408203125,59.28669738769531 L455.4098815917969,61.01033401489258 L455.6828308105469,62.966026306152344 L456.039794921875,65.05101776123047 L456.40179443359375,67.15731048583984 L456.6802978515625,69.16323852539062 L456.79022216796875,70.9548110961914 L456.66302490234375,72.43347930908203 L456.2582092285156,73.54071044921875 L455.5845947265625,74.26087951660156 L454.68841552734375,74.59900665283203 L453.66412353515625,74.57089233398438 L452.62530517578125,74.20845794677734 L451.6864318847656,73.56602478027344 L450.957275390625,72.70046997070312 L450.5375671386719,71.66732025146484 L450.5123291015625,70.50596618652344 L450.9479064941406,69.25308990478516 L451.8909606933594,67.95703125 L453.24005126953125,66.72076416015625 L454.7965393066406,65.64073181152344 L456.1112060546875,64.87616729736328 L456.93756103515625,64.45774841308594 M469.55120849609375,55.7442626953125 L469.578125,55.96821975708008 L469.619384765625,56.44472885131836 L469.665771484375,57.21002960205078 L469.708251953125,58.215999603271484 L469.758544921875,59.3910026550293 L469.8292541503906,60.610801696777344 L469.9253845214844,61.747764587402344 L470.0438232421875,62.685760498046875 L470.15704345703125,63.31692123413086 L470.249755859375,63.573143005371094 L470.3211364746094,63.41925811767578 L470.38720703125,62.8292350769043 L470.4769592285156,61.837100982666016 L470.6379699707031,60.55065155029297 L470.901123046875,59.092315673828125 L471.3013916015625,57.61491012573242 L471.84564208984375,56.260047912597656 L472.5079345703125,55.127708435058594 L473.24066162109375,54.304420471191406 L474.00140380859375,53.86969757080078 L474.73974609375,53.85940933227539 L475.42047119140625,54.29750061035156 L476.0091552734375,55.1591911315918 L476.46551513671875,56.35853958129883 L476.77276611328125,57.7569580078125 L476.9479064941406,59.161109924316406 L477.0229797363281,60.383731842041016 L477.05084228515625,61.290069580078125 L477.08404541015625,61.78040313720703 L477.1620788574219,61.810333251953125 L477.33172607421875,61.37553787231445 L477.6263122558594,60.494937896728516 L478.0527038574219,59.269920349121094 L478.6091003417969,57.874996185302734 L479.265869140625,56.49552536010742 L479.9715270996094,55.30833053588867 L480.66644287109375,54.4334716796875 L481.2796630859375,53.937198638916016 L481.7506408691406,53.8549690246582 L482.06201171875,54.20829391479492 L482.22491455078125,54.98448181152344 L482.27008056640625,56.12954330444336 L482.24053955078125,57.534278869628906 L482.1846923828125,59.067100524902344 L482.14208984375,60.55110549926758 L482.1457214355469,61.8309211730957 L482.1821594238281,62.72248458862305 L482.2239685058594,63.1999397277832 M485.13116455078125,54.48110580444336 L485.158203125,54.58977508544922 L485.2129211425781,54.91195297241211 L485.2913818359375,55.53263473510742 L485.3896484375,56.45487594604492 L485.5346984863281,57.59665298461914 L485.750244140625,58.82234191894531 L486.0564880371094,59.98760986328125 L486.49249267578125,60.953243255615234 L487.06500244140625,61.59274673461914 L487.7755126953125,61.80602264404297 L488.6248474121094,61.53849411010742 L489.57489013671875,60.79051208496094 L490.55255126953125,59.651729583740234 L491.4808044433594,58.269752502441406 L492.27337646484375,56.84958267211914 L492.8735046386719,55.581485748291016 L493.2605895996094,54.619300842285156 L493.4360046386719,54.05976867675781 L493.4193420410156,53.96238708496094 L493.2447509765625,54.351844787597656 L492.9463806152344,55.26311111450195 L492.5612487792969,56.6718864440918 L492.11773681640625,58.535926818847656 L491.6446533203125,60.77387237548828 L491.16632080078125,63.27210235595703 L490.711669921875,65.89167785644531 L490.2996826171875,68.4876937866211 L489.949462890625,70.90423583984375 L489.6690673828125,72.99149322509766 L489.4665222167969,74.63531494140625 L489.34326171875,75.70648193359375 L489.2872314453125,76.2478256225586 M502.00860595703125,54.687137603759766 L501.9986572265625,54.88914108276367 L501.95574951171875,55.36104965209961 L501.8619384765625,56.1763916015625 L501.7259826660156,57.32758331298828 L501.5963134765625,58.74894332885742 L501.522705078125,60.2909049987793 L501.5496826171875,61.776092529296875 L501.7003173828125,63.019798278808594 L501.9776916503906,63.86414337158203 L502.38348388671875,64.2154312133789 L502.9132080078125,64.0402603149414 L503.5430908203125,63.35981369018555 L504.21661376953125,62.27748107910156 L504.86358642578125,60.96319580078125 L505.42132568359375,59.62404251098633 L505.85150146484375,58.44658660888672 L506.1429748535156,57.56265640258789 L506.31915283203125,57.040138244628906 L506.40435791015625,56.92040252685547 L506.4337463378906,57.21037673950195 L506.4486083984375,57.90352249145508 L506.5066223144531,58.92631149291992 L506.670654296875,60.14671325683594 L506.999755859375,61.38664627075195 L507.51434326171875,62.48373794555664 L508.19915771484375,63.290870666503906 L508.988525390625,63.718223571777344 L509.79962158203125,63.71219253540039 L510.55242919921875,63.263755798339844 L511.17767333984375,62.40452194213867 L511.6224060058594,61.22655487060547 L511.8717041015625,59.84682083129883 L511.922607421875,58.3930549621582 L511.78631591796875,56.985862731933594 L511.50714111328125,55.72734832763672 L511.135009765625,54.72064971923828 L510.7364196777344,54.04679489135742 L510.388427734375,53.73283386230469 L510.15283203125,53.675506591796875 L510.03228759765625,53.740142822265625 M518.9974365234375,57.242645263671875 L518.8772583007812,56.92955017089844 L518.6148681640625,56.44575500488281 L518.1737060546875,55.90604019165039 L517.566162109375,55.52265548706055 L516.8209838867188,55.42933654785156 L515.9989624023438,55.72269058227539 L515.1665649414062,56.41961669921875 L514.406005859375,57.479347229003906 L513.7935180664062,58.784420013427734 L513.403076171875,60.17350769042969 L513.2913208007812,61.46742630004883 L513.4986572265625,62.504371643066406 L514.0282592773438,63.15715789794922 L514.840576171875,63.35356140136719 L515.851318359375,63.06031799316406 L516.9498291015625,62.303001403808594 L518.0213623046875,61.169288635253906 L518.9661865234375,59.795352935791016 L519.7139892578125,58.35955047607422 L520.2266235351562,57.051151275634766 L520.4977416992188,56.00611114501953 L520.5593872070312,55.3206901550293 L520.468505859375,55.0595817565918 L520.279296875,55.23629379272461 L520.0519409179688,55.8544921875 L519.8404541015625,56.86518859863281 L519.69921875,58.14775085449219 L519.7030029296875,59.55463409423828 L519.8878784179688,60.91183853149414 L520.240234375,62.05619812011719 L520.6121826171875,62.83803939819336 L520.8861694335938,63.24740219116211 M523.4894409179688,55.58363723754883 L523.5518798828125,55.84457778930664 L523.6807250976562,56.375553131103516 L523.890869140625,57.18674850463867 L524.1854858398438,58.184757232666016 L524.5881958007812,59.2633056640625 L525.104248046875,60.29640197753906 L525.7398071289062,61.185157775878906 L526.4976806640625,61.7997932434082 L527.3399047851562,62.05195236206055 L528.2069702148438,61.92416000366211 L528.9127197265625,61.61465835571289 L529.353759765625,61.31229782104492 M531.2437744140625,57.5490608215332 L531.1904907226562,57.69917297363281 L531.02001953125,58.0775260925293 L530.6699829101562,58.77305221557617 L530.113037109375,59.80495834350586 L529.3651733398438,61.14260482788086 L528.48974609375,62.726200103759766 L527.555908203125,64.4718246459961 L526.6412963867188,66.29181671142578 L525.8089599609375,68.09607696533203 L525.1064453125,69.7811508178711 L524.5904541015625,71.20574951171875 L524.3118896484375,72.2458267211914 L524.2798461914062,72.83602905273438 L524.3897705078125,73.05813598632812 L524.5303955078125,73.06529998779297 M547.7215576171875,59.19975280761719 L547.6605834960938,58.79787826538086 L547.459716796875,58.178531646728516 L547.03662109375,57.46866989135742 L546.3377685546875,56.897361755371094 L545.361083984375,56.585540771484375 L544.15966796875,56.63523864746094 L542.833984375,57.082279205322266 L541.52587890625,57.92454147338867 L540.3865966796875,59.08616638183594 L539.5473022460938,60.436012268066406 L539.1064453125,61.82387161254883 L539.107177734375,63.09914016723633 L539.5477294921875,64.1245346069336 L540.387451171875,64.79357147216797 L541.546875,65.01888275146484 L542.9147338867188,64.74531555175781 L544.3731079101562,63.954132080078125 L545.8184814453125,62.66251754760742 L547.1683349609375,60.92546844482422 L548.36669921875,58.85251235961914 L549.388427734375,56.58723068237305 L550.2156982421875,54.28466796875 L550.8339233398438,52.11589050292969 L551.2566528320312,50.23910140991211 L551.5074462890625,48.76401138305664 L551.6179809570312,47.78308868408203 L551.6214599609375,47.35813903808594 L551.5355834960938,47.51420593261719 L551.3663330078125,48.27490997314453 L551.1282958984375,49.6162223815918 L550.86572265625,51.43098068237305 L550.6278076171875,53.57762145996094 L550.4635620117188,55.8774299621582 L550.4102172851562,58.14565658569336 L550.4791259765625,60.231021881103516 L550.6883544921875,61.97909927368164 L551.0491943359375,63.26679229736328 L551.5382690429688,64.05367279052734 L551.9985961914062,64.41598510742188 L552.32470703125,64.50672912597656 M558.5694580078125,57.91694259643555 L558.4818725585938,57.50225830078125 L558.2554931640625,56.928951263427734 L557.8343505859375,56.36711883544922 L557.2054443359375,56.069679260253906 L556.4114990234375,56.13435363769531 L555.5320434570312,56.61428451538086 L554.6944580078125,57.48075485229492 L554.032470703125,58.6688117980957 L553.6617431640625,60.03300094604492 L553.65869140625,61.38304901123047 L554.0546264648438,62.54496765136719 L554.81201171875,63.374752044677734 L555.8536376953125,63.77632522583008 L557.0516357421875,63.70448303222656 L558.2545166015625,63.16840362548828 L559.305908203125,62.22509002685547 L560.0875244140625,61.00151824951172 L560.5262451171875,59.652198791503906 L560.62158203125,58.33701705932617 L560.4232788085938,57.19791793823242 L560.0371704101562,56.33658981323242 L559.5795288085938,55.78728485107422 L559.2046508789062,55.51675033569336 L558.97802734375,55.43326187133789 M563.6126098632812,55.509498596191406 L563.5139770507812,55.780860900878906 L563.3414306640625,56.34670639038086 L563.1075439453125,57.24905776977539 L562.8641357421875,58.429080963134766 L562.6536865234375,59.78715896606445 L562.5353393554688,61.175411224365234 L562.5665893554688,62.424652099609375 L562.8011474609375,63.36082077026367 L563.2634887695312,63.84825134277344 L563.9495239257812,63.816253662109375 L564.8092651367188,63.250038146972656 L565.7694702148438,62.22811508178711 L566.7330322265625,60.92329025268555 L567.5946044921875,59.55709457397461 L568.2652587890625,58.347286224365234 L568.6996459960938,57.4703254699707 L568.9019165039062,57.007972717285156 L568.9193115234375,56.98288345336914 L568.8160400390625,57.38458251953125 L568.6602783203125,58.165348052978516 L568.5270385742188,59.221046447753906 L568.4904174804688,60.41379165649414 L568.625244140625,61.57444763183594 L568.98046875,62.54484558105469 L569.5538330078125,63.19205093383789 L570.31103515625,63.43213653564453 L571.185791015625,63.22041702270508 L572.0765380859375,62.56924819946289 L572.8829345703125,61.557186126708984 L573.5101318359375,60.318824768066406 L573.892578125,58.99591827392578 L574.025634765625,57.721675872802734 L573.9598388671875,56.605281829833984 L573.7730102539062,55.71593475341797 L573.582763671875,55.13067626953125 L573.4532470703125,54.83443832397461 M577.3311157226562,55.80697250366211 L577.29736328125,55.502017974853516 L577.2417602539062,55.136497497558594 L577.1639404296875,54.8873176574707 L577.065673828125,54.97124481201172 L576.9522705078125,55.44541931152344 L576.8145751953125,56.28622055053711 L576.6576538085938,57.39332962036133 L576.5133666992188,58.663673400878906 L576.4157104492188,59.95367431640625 L576.375244140625,61.11682891845703 L576.404296875,62.03272247314453 L576.485107421875,62.60297775268555 L576.6226806640625,62.76090621948242 L576.841552734375,62.48567199707031 L577.203125,61.79731369018555 L577.7421264648438,60.78245544433594 L578.4759521484375,59.58821487426758 L579.3759765625,58.387962341308594 L580.37744140625,57.33357238769531 L581.39404296875,56.54159164428711 L582.3590087890625,56.080604553222656 L583.20458984375,55.993927001953125 L583.87451171875,56.29997253417969 L584.3364868164062,56.9881591796875 L584.5746459960938,58.00041961669922 L584.6207275390625,59.233158111572266 L584.54150390625,60.55775833129883 L584.4327392578125,61.80439758300781 L584.3724365234375,62.80226135253906 L584.41064453125,63.435787200927734 L584.5017700195312,63.726749420166016 L584.5948486328125,63.784297943115234 M589.8583984375,46.23332977294922 L589.8917846679688,46.450599670410156 L589.9117431640625,47.00829315185547 L589.89599609375,48.0022087097168 L589.82763671875,49.41136169433594 L589.7275390625,51.13740158081055 L589.6185302734375,53.068634033203125 L589.5347900390625,55.092201232910156 L589.4896240234375,57.110862731933594 L589.4998779296875,58.988243103027344 L589.556396484375,60.579139709472656 L589.6241455078125,61.6784782409668 L589.67578125,62.26760482788086 M586.0592041015625,55.651126861572266 L586.1917724609375,55.57199478149414 L586.5816650390625,55.4938850402832 L587.3177490234375,55.45343780517578 L588.45263671875,55.493202209472656 L589.9005126953125,55.59673309326172 L591.49853515625,55.72631072998047 L592.8273315429688,55.8328742980957 L593.6744384765625,55.90195083618164 M598.8565673828125,57.33222579956055 L598.722900390625,57.12236785888672 L598.4124755859375,56.80451202392578 L597.8724365234375,56.4727668762207 L597.1085205078125,56.28105163574219 L596.158935546875,56.32229232788086 L595.1190795898438,56.64714813232422 L594.1365966796875,57.255210876464844 L593.364990234375,58.10152053833008 L592.9454345703125,59.10691452026367 L592.96728515625,60.155616760253906 L593.43701171875,61.12061309814453 L594.2947998046875,61.88247299194336 L595.443603515625,62.34713363647461 L596.739013671875,62.46132278442383 L598.025634765625,62.202880859375 L599.1446533203125,61.5814323425293 L599.9622192382812,60.65890121459961 L600.3988037109375,59.54302215576172 L600.460205078125,58.378440856933594 L600.1990966796875,57.34482955932617 L599.7308959960938,56.57499694824219 L599.182861328125,56.123653411865234 L598.7296752929688,55.939109802246094 L598.4510498046875,55.91164779663086 M603.521484375,55.99673843383789 L603.409423828125,55.81193542480469 L603.194091796875,55.63373947143555 L602.87890625,55.606502532958984 L602.5009765625,55.89903259277344 L602.1083984375,56.54882049560547 L601.7610473632812,57.5234375 L601.5257568359375,58.713619232177734 L601.4757080078125,59.992210388183594 L601.66650390625,61.194541931152344 L602.121337890625,62.170352935791016 L602.8297119140625,62.792598724365234 L603.7479248046875,62.980899810791016 L604.79833984375,62.69956588745117 L605.874755859375,61.984188079833984 L606.857177734375,60.93241882324219 L607.64892578125,59.70556640625 L608.181884765625,58.481536865234375 L608.4585571289062,57.413875579833984 L608.5242919921875,56.60111999511719 L608.439453125,56.113861083984375 L608.2523803710938,55.997283935546875 L608.0070190429688,56.28709411621094 L607.7322998046875,56.98392868041992 L607.4866943359375,58.01750946044922 L607.3419189453125,59.23902893066406 L607.3828125,60.473846435546875 L607.671630859375,61.54665756225586 L608.238037109375,62.328880310058594 L609.0630493164062,62.750186920166016 L610.0738525390625,62.78547668457031 L611.155029296875,62.42858123779297 L612.1875,61.71674728393555 L613.0589599609375,60.724388122558594 L613.68603515625,59.55756759643555 L614.0496826171875,58.35224151611328 L614.1605224609375,57.23826217651367 L614.080078125,56.305992126464844 L613.8968505859375,55.60875701904297 L613.7181396484375,55.17912292480469 L613.5982666015625,54.972896575927734 M618.74853515625,56.36466979980469 L618.6766357421875,56.2459831237793 L618.54345703125,56.17607116699219 L618.3575439453125,56.28304672241211 L618.1434936523438,56.698055267333984 L617.9345703125,57.42888641357422 L617.7376708984375,58.41289138793945 L617.57080078125,59.52643966674805 L617.4515380859375,60.62967300415039 L617.39404296875,61.582916259765625 L617.385498046875,62.27342224121094 L617.417724609375,62.62171936035156 L617.4676513671875,62.58833312988281 L617.5565795898438,62.153541564941406 L617.7308349609375,61.33687210083008 L618.0479736328125,60.222679138183594 L618.54736328125,58.93708038330078 L619.2430419921875,57.62278366088867 L620.1090698242188,56.40709686279297 L621.1043701171875,55.38181686401367 L622.1705322265625,54.61720275878906 L623.217529296875,54.16904067993164 L624.1608276367188,54.06792449951172 L624.9217529296875,54.316776275634766 L625.4554443359375,54.88230514526367 L625.7642822265625,55.721336364746094 L625.8865966796875,56.76913833618164 L625.8631591796875,57.944053649902344 L625.7301025390625,59.179141998291016 L625.5115966796875,60.39113998413086 L625.2435302734375,61.49024200439453 L625.007568359375,62.30569076538086 L624.8525390625,62.77865219116211 " fill="none" stroke="black" stroke-linecap="round" stroke-width="2" /><path d="M0,0 M452.03399658203125,107.11810302734375 L451.99920654296875,108.0460205078125 L451.9561462402344,109.613037109375 L451.91986083984375,111.68856811523438 L451.92144775390625,113.9246597290039 L451.9820251464844,116.19937133789062 L452.12890625,118.40895080566406 L452.3797302246094,120.47606658935547 L452.73675537109375,122.24861907958984 L453.18878173828125,123.58751678466797 L453.7214660644531,124.36478424072266 L454.3256530761719,124.5155258178711 L454.9924011230469,124.03193664550781 L455.6929931640625,122.95454406738281 L456.38800048828125,121.38638305664062 L457.0304870605469,119.46728515625 L457.5783996582031,117.35188293457031 L458.0204772949219,115.20404815673828 L458.3635559082031,113.18072509765625 L458.6134948730469,111.41535949707031 L458.7875061035156,110.0337905883789 L458.886962890625,109.1277847290039 L458.9054870605469,108.77093505859375 L458.842529296875,109.01115417480469 L458.7140808105469,109.87812805175781 L458.5426330566406,111.33888244628906 L458.3747863769531,113.28218841552734 L458.2706604003906,115.5346908569336 L458.2900085449219,117.87842559814453 L458.4727478027344,120.08281707763672 L458.8343811035156,121.952392578125 L459.34466552734375,123.33787536621094 L459.9578552246094,124.1302490234375 L460.6351013183594,124.28547668457031 L461.3486633300781,123.79104614257812 L462.0784912109375,122.66808319091797 L462.8025817871094,120.99132537841797 L463.500244140625,118.88733673095703 L464.1557922363281,116.50172424316406 L464.7579650878906,114.01475524902344 L465.30792236328125,111.61023712158203 L465.8002014160156,109.4836654663086 L466.2251281738281,107.79133605957031 L466.5338134765625,106.69232177734375 L466.71337890625,106.14254760742188 M471.47509765625,116.31551361083984 L471.2982482910156,115.94061279296875 L470.9459228515625,115.38390350341797 L470.3952331542969,114.81645202636719 L469.6824035644531,114.50796508789062 L468.84222412109375,114.60720825195312 L467.9190979003906,115.1766128540039 L466.9903564453125,116.19023895263672 L466.16265869140625,117.55718231201172 L465.54254150390625,119.13822937011719 L465.2198486328125,120.75355529785156 L465.20928955078125,122.21503448486328 L465.46649169921875,123.352783203125 L465.9324035644531,124.04875183105469 L466.5503234863281,124.2400894165039 L467.2814025878906,123.91422271728516 L468.09619140625,123.10553741455078 L468.9366455078125,121.8953857421875 L469.7456359863281,120.40986633300781 L470.47161865234375,118.79991149902344 L471.0732421875,117.25326538085938 L471.52740478515625,115.9269027709961 L471.8291015625,114.93566131591797 L471.9814147949219,114.34864044189453 L472.00604248046875,114.19156646728516 L471.9324951171875,114.46569061279297 L471.7757263183594,115.17660522460938 L471.5677490234375,116.2796859741211 L471.34808349609375,117.68197631835938 L471.16473388671875,119.25345611572266 L471.0733947753906,120.84397888183594 L471.1138610839844,122.32365417480469 L471.3299560546875,123.52349090576172 L471.7421569824219,124.30921936035156 L472.3260498046875,124.60641479492188 L472.885009765625,124.56800842285156 L473.2835693359375,124.39386749267578 M477.291015625,105.0 L477.2539367675781,105.21883392333984 L477.1972961425781,105.75765228271484 L477.1227722167969,106.70909118652344 L477.03741455078125,108.07374572753906 L476.93865966796875,109.7987289428711 L476.8382263183594,111.8023452758789 L476.74847412109375,113.9727783203125 L476.69580078125,116.17707061767578 L476.7074279785156,118.24896240234375 L476.7953796386719,120.01997375488281 L476.9476013183594,121.38986206054688 L477.14599609375,122.26827239990234 L477.3624572753906,122.63396453857422 L477.581298828125,122.54461669921875 L477.75982666015625,122.24433135986328 L477.87744140625,121.93948364257812 M481.492919921875,105.59669494628906 L481.5455017089844,105.83258819580078 L481.6037292480469,106.40480041503906 L481.62347412109375,107.39910888671875 L481.569091796875,108.7959976196289 L481.4544372558594,110.52024841308594 L481.2973937988281,112.46110534667969 L481.1366882324219,114.4947280883789 L481.00115966796875,116.49837493896484 L480.9089660644531,118.3295669555664 L480.8707580566406,119.85304260253906 L480.8818054199219,120.99890899658203 L480.93267822265625,121.70413208007812 L481.01708984375,121.96800231933594 L481.1343078613281,121.84982299804688 L481.25152587890625,121.56587982177734 L481.34124755859375,121.29142761230469 M485.4815673828125,114.1146011352539 L485.06134033203125,114.0701675415039 L484.3149108886719,114.12930297851562 L483.2878723144531,114.38853454589844 L482.16485595703125,114.90851593017578 L481.0921630859375,115.63390350341797 L480.2295227050781,116.47184753417969 L479.704345703125,117.31793212890625 L479.61297607421875,118.09532928466797 L479.97845458984375,118.75104522705078 L480.75787353515625,119.25115203857422 L481.8632507324219,119.5824966430664 L483.18365478515625,119.75752258300781 L484.5947570800781,119.79060363769531 L485.97998046875,119.68832397460938 L487.2396240234375,119.46722412109375 L488.289306640625,119.13219451904297 L489.0843505859375,118.70635986328125 L489.6205749511719,118.24909973144531 L489.9239807128906,117.81771850585938 L490.049072265625,117.46752166748047 L490.06353759765625,117.25698852539062 L490.0264587402344,117.23628997802734 L489.98443603515625,117.44637298583984 L489.95440673828125,117.91602325439453 L489.9436950683594,118.614990234375 L489.9447937011719,119.45793914794922 L489.9505310058594,120.33511352539062 L489.9637451171875,121.10045623779297 L489.990234375,121.63127136230469 L490.0343017578125,121.8717041015625 L490.0843505859375,121.89842224121094 L490.1246643066406,121.82392120361328 M489.5912780761719,109.49546813964844 L489.66827392578125,109.43025970458984 L489.80743408203125,109.38929748535156 L489.9578857421875,109.38125610351562 L490.0687561035156,109.41477966308594 M494.3507385253906,114.4520492553711 L494.463134765625,114.38819885253906 L494.6142272949219,114.41072845458984 L494.7547607421875,114.64720916748047 L494.8164367675781,115.21404266357422 L494.77752685546875,116.10816955566406 L494.63934326171875,117.26200866699219 L494.4375915527344,118.53667449951172 L494.224609375,119.79344940185547 L494.0563049316406,120.89488220214844 L493.9759521484375,121.73191833496094 L494.0028381347656,122.22021484375 L494.15020751953125,122.31172180175781 L494.4427490234375,121.97106170654297 L494.91094970703125,121.21389770507812 L495.567138671875,120.11164855957031 L496.4002685546875,118.79792785644531 L497.3717956542969,117.44104766845703 L498.4181823730469,116.2082748413086 L499.4667053222656,115.21976470947266 L500.443359375,114.56423950195312 L501.27972412109375,114.28864288330078 L501.93414306640625,114.41392517089844 L502.3871154785156,114.92245483398438 L502.6368408203125,115.76435852050781 L502.7051696777344,116.8504867553711 L502.635986328125,118.0768814086914 L502.49261474609375,119.32305908203125 L502.38970947265625,120.45880889892578 L502.41766357421875,121.36102294921875 L502.620849609375,121.95748138427734 L502.89068603515625,122.25987243652344 L503.1185302734375,122.3551025390625 M510.8755187988281,116.79981231689453 L510.802734375,116.47559356689453 L510.5843200683594,116.01885223388672 L510.154052734375,115.56795501708984 L509.4930725097656,115.34133911132812 L508.6411437988281,115.43130493164062 L507.69427490234375,115.87355041503906 L506.78155517578125,116.60910034179688 L506.05810546875,117.53387451171875 L505.6668701171875,118.48395538330078 L505.70574951171875,119.29246520996094 L506.19512939453125,119.81558990478516 L507.07598876953125,119.97175598144531 L508.2187194824219,119.74378967285156 L509.46881103515625,119.18667602539062 L510.6625061035156,118.40108489990234 L511.6657409667969,117.53002166748047 L512.3938598632812,116.70955657958984 L512.8207397460938,116.05274200439453 L512.97412109375,115.63509368896484 L512.9317626953125,115.51775360107422 L512.7836303710938,115.72523498535156 L512.6288452148438,116.28939819335938 L512.5509033203125,117.21585083007812 L512.6015014648438,118.48240661621094 L512.7872314453125,120.04754638671875 L513.078369140625,121.86761474609375 L513.40087890625,123.85478973388672 L513.673828125,125.91544342041016 L513.81103515625,127.92923736572266 L513.7443237304688,129.7670440673828 L513.43603515625,131.31845092773438 L512.8864135742188,132.5093231201172 L512.1104125976562,133.28158569335938 L511.1510925292969,133.6165771484375 L510.06939697265625,133.53053283691406 L508.9571838378906,133.06768798828125 L507.94189453125,132.30416870117188 L507.16815185546875,131.3265838623047 L506.73785400390625,130.2034454345703 L506.77630615234375,128.95986938476562 L507.31085205078125,127.6571044921875 L508.2719421386719,126.37643432617188 L509.2591552734375,125.37188720703125 L509.98577880859375,124.76349639892578 M527.8865356445312,120.29122924804688 L528.0880126953125,119.83139038085938 L528.4385986328125,119.00575256347656 L528.8933715820312,117.83247375488281 L529.35693359375,116.44219207763672 L529.7689208984375,114.87779235839844 L530.0823364257812,113.20066833496094 L530.288330078125,111.49058532714844 L530.3714599609375,109.86781311035156 L530.33447265625,108.46171569824219 L530.1932373046875,107.3941650390625 L529.9656372070312,106.75666809082031 L529.6538696289062,106.62073516845703 L529.268798828125,107.04790496826172 L528.8092041015625,108.06295013427734 L528.3119506835938,109.64269256591797 L527.8201293945312,111.69954681396484 L527.3856201171875,114.09537506103516 L527.040283203125,116.68425750732422 L526.8043823242188,119.31593322753906 L526.6714477539062,121.86368560791016 L526.6305541992188,124.17774963378906 L526.659912109375,126.11185455322266 L526.715087890625,127.44019317626953 L526.7627563476562,128.1519775390625 M523.7041015625,118.57767486572266 L523.8861694335938,118.379638671875 L524.3649291992188,118.12274169921875 L525.2206420898438,117.8703384399414 L526.5079956054688,117.71195220947266 L528.1473999023438,117.63154602050781 L529.9822387695312,117.60420989990234 L531.534912109375,117.59866333007812 L532.54296875,117.60609436035156 M539.114013671875,116.23271942138672 L538.9488525390625,116.06398010253906 L538.5829467773438,115.83055114746094 L537.9635620117188,115.63269805908203 L537.09814453125,115.62281799316406 L536.0192260742188,115.88703918457031 L534.8262329101562,116.47132110595703 L533.6685180664062,117.3427505493164 L532.7062377929688,118.4026870727539 L532.0953369140625,119.52008819580078 L531.9273071289062,120.54225158691406 L532.2071533203125,121.3340835571289 L532.884521484375,121.79666137695312 L533.8695678710938,121.86784362792969 L535.0394287109375,121.51221466064453 L536.278076171875,120.75729370117188 L537.4639892578125,119.67652893066406 L538.4868774414062,118.40554809570312 L539.268310546875,117.10592651367188 L539.7838134765625,115.93453216552734 L540.056884765625,115.00589752197266 L540.1358032226562,114.4010238647461 L540.0821533203125,114.16181182861328 L539.9449462890625,114.31316375732422 L539.7498168945312,114.85363006591797 L539.5352783203125,115.73313903808594 L539.3511962890625,116.8562240600586 L539.238037109375,118.09458923339844 L539.29248046875,119.3094482421875 L539.5712280273438,120.37530517578125 L540.0767822265625,121.20712280273438 L540.61083984375,121.73577880859375 L541.016357421875,121.99227142333984 M548.7410278320312,115.16859436035156 L548.5096435546875,114.8410415649414 L548.0403442382812,114.44171142578125 L547.3106689453125,114.13236999511719 L546.408203125,114.1091537475586 L545.4586181640625,114.3817367553711 L544.6221313476562,114.9086685180664 L544.064697265625,115.6064682006836 L543.915771484375,116.42646789550781 L544.2406616210938,117.30931854248047 L545.0310668945312,118.19990539550781 L546.1962890625,119.04190826416016 L547.5869140625,119.80435943603516 L549.009765625,120.463623046875 L550.2706298828125,121.01724243164062 L551.199462890625,121.46907043457031 L551.6607666015625,121.82756805419922 L551.5828247070312,122.09114074707031 L550.9818115234375,122.28105163574219 L549.9435424804688,122.4105453491211 L548.61572265625,122.4906997680664 L547.1820068359375,122.5248031616211 L545.830078125,122.5190658569336 L544.7164306640625,122.4713134765625 L544.008544921875,122.34929656982422 L543.793701171875,122.125 L544.0521240234375,121.77476501464844 L544.5068969726562,121.41447448730469 L544.91650390625,121.14212036132812 M557.1142578125,106.6272964477539 L557.1795654296875,106.69310760498047 L557.2318115234375,106.9676284790039 L557.2128295898438,107.5678939819336 L557.0672607421875,108.55084228515625 L556.8101806640625,109.8750991821289 L556.4973754882812,111.46219635009766 L556.2024536132812,113.21141815185547 L555.981201171875,115.01399993896484 L555.86328125,116.74507904052734 L555.836181640625,118.2833480834961 L555.8668212890625,119.53595733642578 L555.915771484375,120.40787506103516 L555.9525146484375,120.8607406616211 L555.9592895507812,120.90959167480469 L555.9485473632812,120.73705291748047 L555.93212890625,120.52234649658203 M551.8120727539062,113.89031219482422 L551.9794311523438,113.8324966430664 L552.408935546875,113.73809814453125 L553.1918334960938,113.62720489501953 L554.3363037109375,113.53504943847656 L555.7772216796875,113.4798583984375 L557.3798828125,113.4461441040039 L559.032470703125,113.42485809326172 L560.636962890625,113.38993072509766 L562.098388671875,113.33055114746094 L563.3424682617188,113.24977111816406 L564.21826171875,113.17683410644531 L564.6939697265625,113.12271118164062 " fill="none" stroke="black" stroke-linecap="round" stroke-width="2" /><path d="M0,0 M464.7992248535156,166.599609375 L464.8719482421875,166.72671508789062 L464.98004150390625,167.08859252929688 L465.0950012207031,167.80523681640625 L465.173095703125,168.93801879882812 L465.2023620605469,170.48497009277344 L465.19110107421875,172.38885498046875 L465.1590576171875,174.5489501953125 L465.1424560546875,176.8387908935547 L465.17333984375,179.12063598632812 L465.2712707519531,181.23912048339844 L465.4341735839844,183.06809997558594 L465.6333923339844,184.4415740966797 L465.8254089355469,185.24896240234375 L465.9772033691406,185.47238159179688 L466.06976318359375,185.33998107910156 L466.1107177734375,185.09402465820312 M458.1611022949219,167.2156982421875 L458.3197021484375,167.13284301757812 L458.782470703125,166.99758911132812 L459.6811828613281,166.8229217529297 L461.0575866699219,166.63133239746094 L462.84783935546875,166.41049194335938 L464.9227294921875,166.1466522216797 L467.12896728515625,165.83154296875 L469.3121643066406,165.5053253173828 L471.2894287109375,165.2313232421875 L472.90411376953125,165.063720703125 L473.9794616699219,165.0 L474.52471923828125,165.0031280517578 M460.92791748046875,177.8814239501953 L461.174560546875,178.0120391845703 L461.7253723144531,178.12998962402344 L462.63043212890625,178.14891052246094 L463.89068603515625,177.9859619140625 L465.42144775390625,177.6899871826172 L467.0844421386719,177.34915161132812 L468.4676818847656,177.08009338378906 L469.3533935546875,176.92381286621094 M478.0130310058594,176.62010192871094 L477.9102783203125,176.29571533203125 L477.6618347167969,175.7849578857422 L477.222900390625,175.2012939453125 L476.5867919921875,174.75885009765625 L475.7740478515625,174.6056365966797 L474.8354797363281,174.8563690185547 L473.85089111328125,175.55706787109375 L472.9200439453125,176.68006896972656 L472.16900634765625,178.12155151367188 L471.69342041015625,179.70037841796875 L471.5616760253906,181.21290588378906 L471.7891540527344,182.46495056152344 L472.34527587890625,183.30418395996094 L473.1661376953125,183.63929748535156 L474.175048828125,183.43812561035156 L475.26092529296875,182.71356201171875 L476.32275390625,181.53903198242188 L477.2597351074219,180.0461883544922 L478.0005187988281,178.43228149414062 L478.5270080566406,176.92849731445312 L478.8479919433594,175.7239227294922 L478.99798583984375,174.94363403320312 L479.0256042480469,174.6436309814453 L478.96820068359375,174.8214111328125 L478.86114501953125,175.46592712402344 L478.7579040527344,176.52908325195312 L478.6813659667969,177.890625 L478.67864990234375,179.41331481933594 L478.7772521972656,180.92672729492188 L478.97625732421875,182.27462768554688 L479.189208984375,183.24781799316406 L479.3560485839844,183.79788208007812 M486.9541931152344,174.57069396972656 L486.8101501464844,174.366455078125 L486.5054016113281,174.12155151367188 L486.0164489746094,173.97779846191406 L485.3769836425781,174.1236114501953 L484.6437072753906,174.6401824951172 L483.916259765625,175.54258728027344 L483.2952880859375,176.76425170898438 L482.86358642578125,178.18272399902344 L482.690673828125,179.6510009765625 L482.8123474121094,181.01416015625 L483.23291015625,182.14808654785156 L483.9925537109375,182.93069458007812 L485.0500183105469,183.3050079345703 L486.3072204589844,183.27362060546875 L487.41033935546875,183.03857421875 L488.1424560546875,182.78543090820312 M490.2178039550781,178.81829833984375 L490.4444580078125,178.8417510986328 L490.89215087890625,178.78863525390625 L491.566162109375,178.58688354492188 L492.384033203125,178.18206787109375 L493.25860595703125,177.591064453125 L494.0739440917969,176.85411071777344 L494.73968505859375,176.03697204589844 L495.1788024902344,175.20587158203125 L495.3345031738281,174.45462036132812 L495.17010498046875,173.8834991455078 L494.68292236328125,173.59251403808594 L493.9095764160156,173.64886474609375 L492.95648193359375,174.08889770507812 L491.9605712890625,174.8950653076172 L491.0763244628906,176.0084228515625 L490.44464111328125,177.32321166992188 L490.177734375,178.7161865234375 L490.3407287597656,180.05316162109375 L490.94244384765625,181.21929931640625 L491.9976501464844,182.09564208984375 L493.4266662597656,182.61285400390625 L495.086669921875,182.75987243652344 L496.5196228027344,182.6833953857422 L497.4601745605469,182.53836059570312 M503.0816650390625,173.81863403320312 L502.84033203125,173.6124267578125 L502.3656921386719,173.38665771484375 L501.65625,173.28482055664062 L500.8156433105469,173.46693420410156 L499.98187255859375,173.9497833251953 L499.3288269042969,174.68226623535156 L499.00860595703125,175.55552673339844 L499.1400146484375,176.46792602539062 L499.758544921875,177.32615661621094 L500.8190002441406,178.06759643554688 L502.202880859375,178.66738891601562 L503.71636962890625,179.1444091796875 L505.1394958496094,179.5375213623047 L506.26324462890625,179.8842010498047 L506.92547607421875,180.21102905273438 L507.0479736328125,180.5302734375 L506.64239501953125,180.84898376464844 L505.78778076171875,181.17054748535156 L504.6266174316406,181.48574829101562 L503.33831787109375,181.77713012695312 L502.12115478515625,182.02561950683594 L501.1369934082031,182.20941162109375 L500.50506591796875,182.32080078125 L500.2037353515625,182.37200927734375 M517.6800537109375,174.4236602783203 L517.6941528320312,174.6200408935547 L517.7283935546875,175.10337829589844 L517.78125,175.97117614746094 L517.84765625,177.24412536621094 L517.910888671875,178.89666748046875 L517.9564208984375,180.86077880859375 L517.981689453125,183.05470275878906 L517.988037109375,185.36866760253906 L517.970703125,187.64810180664062 L517.9459838867188,189.7123565673828 L517.923583984375,191.37640380859375 L517.90869140625,192.48138427734375 L517.9033203125,192.92066955566406 L517.8970947265625,192.6578826904297 L517.8645629882812,191.7135772705078 L517.8079833984375,190.18606567382812 L517.7404174804688,188.2329864501953 L517.6737670898438,186.02816772460938 L517.6394653320312,183.72825622558594 L517.662841796875,181.4528350830078 L517.776611328125,179.27392578125 L518.032958984375,177.25131225585938 L518.4913940429688,175.45098876953125 L519.1813354492188,173.93597412109375 L520.1124877929688,172.7802276611328 L521.2415161132812,172.04295349121094 L522.4901123046875,171.7522430419922 L523.75341796875,171.91177368164062 L524.9234619140625,172.48056030273438 L525.8680419921875,173.37008666992188 L526.4783325195312,174.48043823242188 L526.6729125976562,175.69784545898438 L526.4263305664062,176.91249084472656 L525.7686767578125,178.03456115722656 L524.8046875,178.98043823242188 L523.6655883789062,179.65975952148438 L522.5296020507812,180.0322265625 L521.5535888671875,180.11021423339844 L520.8896484375,180.02247619628906 L520.5462646484375,179.897705078125 M531.513916015625,173.60243225097656 L531.461669921875,173.2782745361328 L531.2945556640625,172.8347930908203 L530.9523315429688,172.42608642578125 L530.41796875,172.2803192138672 L529.728515625,172.4884033203125 L528.9727172851562,173.09666442871094 L528.2515869140625,174.05630493164062 L527.6743774414062,175.26687622070312 L527.3189697265625,176.56910705566406 L527.2314453125,177.7794647216797 L527.4265747070312,178.72889709472656 L527.8865356445312,179.298095703125 L528.5681762695312,179.41549682617188 L529.4071044921875,179.0519256591797 L530.3101806640625,178.23988342285156 L531.1767578125,177.07838439941406 L531.9295654296875,175.73973083496094 L532.5050048828125,174.4255828857422 L532.8897094726562,173.31629943847656 L533.09033203125,172.53262329101562 L533.1246337890625,172.1439971923828 L533.0332641601562,172.17706298828125 L532.8678588867188,172.6427764892578 L532.678955078125,173.51602172851562 L532.5347290039062,174.7001953125 L532.4965209960938,176.0526123046875 L532.58837890625,177.40969848632812 L532.8784790039062,178.58042907714844 L533.3797607421875,179.41970825195312 L534.0699462890625,179.8627166748047 L534.7252807617188,179.99160766601562 L535.1937255859375,179.9526824951172 M541.2279663085938,171.06198120117188 L541.0123901367188,170.82272338867188 L540.549072265625,170.5788116455078 L539.81494140625,170.48619079589844 L538.9152221679688,170.70462036132812 L538.0147094726562,171.20213317871094 L537.3186645507812,171.87962341308594 L537.01806640625,172.61326599121094 L537.23388671875,173.32760620117188 L537.9918823242188,173.97779846191406 L539.2200927734375,174.55740356445312 L540.7332763671875,175.0740509033203 L542.2742919921875,175.5453643798828 L543.5994262695312,175.9969024658203 L544.4948120117188,176.4390106201172 L544.8377685546875,176.87388610839844 L544.5938110351562,177.29701232910156 L543.80419921875,177.6973114013672 L542.5914306640625,178.0559539794922 L541.1650390625,178.3612518310547 L539.7559814453125,178.57440185546875 L538.5875244140625,178.66873168945312 L537.791259765625,178.636474609375 L537.3703002929688,178.54055786132812 L537.2216796875,178.44235229492188 M549.0519409179688,171.0308074951172 L548.8682250976562,170.8236541748047 L548.4671630859375,170.57139587402344 L547.8279418945312,170.4016876220703 L547.0234375,170.4716339111328 L546.185302734375,170.81553649902344 L545.4695434570312,171.39944458007812 L545.040771484375,172.13023376464844 L545.0258178710938,172.9195098876953 L545.4946899414062,173.69728088378906 L546.4276123046875,174.43113708496094 L547.697265625,175.11050415039062 L549.0867919921875,175.7440643310547 L550.33642578125,176.3352813720703 L551.193603515625,176.87721252441406 L551.490966796875,177.3533935546875 L551.1796875,177.74603271484375 L550.3328247070312,178.0405731201172 L549.1334228515625,178.2406768798828 L547.8040771484375,178.3638458251953 L546.5465087890625,178.42539978027344 L545.5140380859375,178.43832397460938 L544.7777099609375,178.40895080566406 L544.34912109375,178.36378479003906 L544.163330078125,178.3235321044922 " fill="none" stroke="black" stroke-linecap="round" stroke-width="2" /><path d="M0,0 M427.115478515625,227.22872924804688 L427.069091796875,227.1873779296875 L426.91827392578125,227.27305603027344 L426.6106872558594,227.6457977294922 L426.1243591308594,228.45811462402344 L425.4668884277344,229.73931884765625 L424.6708679199219,231.44471740722656 L423.7827453613281,233.4831085205078 L422.84234619140625,235.73330688476562 L421.8956604003906,238.05577087402344 L421.0085754394531,240.30001831054688 L420.2293701171875,242.30593872070312 L419.6304016113281,243.87246704101562 L419.26898193359375,244.85922241210938 L419.1589660644531,245.22132873535156 L419.2039794921875,245.17123413085938 L419.3065185546875,244.96368408203125 M426.1197204589844,227.05194091796875 L426.1970520019531,226.79824829101562 L426.2958679199219,226.59585571289062 L426.38726806640625,226.6666717529297 L426.4530334472656,227.2595672607422 L426.52532958984375,228.4082794189453 L426.6426696777344,230.04823303222656 L426.8260498046875,232.03558349609375 L427.0884704589844,234.24729919433594 L427.41473388671875,236.53109741210938 L427.7923278808594,238.75384521484375 L428.19244384765625,240.77206420898438 L428.5745849609375,242.44223022460938 L428.885009765625,243.65130615234375 L429.1037292480469,244.37010192871094 L429.22186279296875,244.68582153320312 L429.26702880859375,244.75637817382812 M424.6563415527344,236.85989379882812 L424.7998352050781,236.87782287597656 L425.1493835449219,236.91729736328125 L425.7461853027344,236.98196411132812 L426.6260681152344,237.0515899658203 L427.744873046875,237.0915985107422 L429.0141906738281,237.08102416992188 L430.09552001953125,237.03652954101562 L430.80706787109375,236.9852752685547 M435.1405029296875,235.61341857910156 L435.03009033203125,236.0817413330078 L434.8531494140625,236.93190002441406 L434.64178466796875,238.1292724609375 L434.45550537109375,239.508544921875 L434.3162536621094,240.9637908935547 L434.22698974609375,242.34426879882812 L434.1766357421875,243.52955627441406 L434.14886474609375,244.3961639404297 L434.12799072265625,244.84359741210938 L434.107177734375,244.8251190185547 L434.0937805175781,244.33831787109375 L434.113037109375,243.40350341796875 L434.2098693847656,242.12265014648438 L434.4282531738281,240.63441467285156 L434.8032531738281,239.08303833007812 L435.3594055175781,237.60888671875 L436.1011047363281,236.32736206054688 L436.9910888671875,235.32461547851562 L437.9770812988281,234.68753051757812 L438.98370361328125,234.4774627685547 L439.92877197265625,234.71456909179688 L440.7406311035156,235.38394165039062 L441.35009765625,236.4319305419922 L441.7003173828125,237.7751007080078 L441.7898864746094,239.30450439453125 L441.6607971191406,240.89028930664062 L441.4255065917969,242.37319946289062 L441.2101745605469,243.60137939453125 L441.10955810546875,244.46563720703125 L441.1117248535156,244.9471435546875 L441.1665954589844,245.1330108642578 M449.8924560546875,239.61825561523438 L449.9282531738281,239.1690673828125 L449.85589599609375,238.44805908203125 L449.5688171386719,237.5837860107422 L448.9832458496094,236.81991577148438 L448.1241760253906,236.2980194091797 L447.0533447265625,236.1336669921875 L445.8633117675781,236.38299560546875 L444.662109375,237.0711212158203 L443.5776062011719,238.16603088378906 L442.7372131347656,239.56092834472656 L442.25677490234375,241.09951782226562 L442.1883544921875,242.59133911132812 L442.52264404296875,243.85353088378906 L443.20086669921875,244.72613525390625 L444.13677978515625,245.10250854492188 L445.24505615234375,244.9222412109375 L446.44769287109375,244.1627960205078 L447.65802001953125,242.84620666503906 L448.8082275390625,241.05377197265625 L449.8354187011719,238.894775390625 L450.69390869140625,236.51339721679688 L451.36993408203125,234.06521606445312 L451.85662841796875,231.7265625 L452.1667785644531,229.67947387695312 L452.34649658203125,228.09646606445312 L452.43292236328125,227.09727478027344 L452.446044921875,226.73916625976562 L452.3943786621094,227.01980590820312 L452.25885009765625,227.9289093017578 L452.03314208984375,229.41554260253906 L451.7476806640625,231.39544677734375 L451.4467468261719,233.73593139648438 L451.1924133300781,236.2622528076172 L451.0364685058594,238.7711639404297 L451.0099182128906,241.07733154296875 L451.14349365234375,242.994384765625 L451.4435119628906,244.39944458007812 L451.878173828125,245.25430297851562 L452.2978210449219,245.65196228027344 L452.5934143066406,245.75885009765625 M465.41290283203125,226.1094207763672 L465.3260192871094,226.50401306152344 L465.16510009765625,227.28128051757812 L464.93389892578125,228.47984313964844 L464.66009521484375,230.01968383789062 L464.3556213378906,231.8431396484375 L464.0420837402344,233.86756896972656 L463.7275390625,235.996337890625 L463.4359436035156,238.10928344726562 L463.1881103515625,240.08578491210938 L463.0040588378906,241.80567932128906 L462.8875732421875,243.19361877441406 L462.859130859375,244.181640625 L462.9100036621094,244.7394561767578 L463.0338439941406,244.8967742919922 L463.16949462890625,244.82022094726562 L463.2737121582031,244.6686248779297 M467.8945007324219,225.0 L467.9338073730469,225.30982971191406 L467.94921875,225.92140197753906 L467.88116455078125,226.8202362060547 L467.6981201171875,227.886474609375 L467.4459228515625,228.98202514648438 L467.1944580078125,229.9769287109375 L467.0177307128906,230.70071411132812 L466.93646240234375,231.11160278320312 M470.73516845703125,237.0021514892578 L470.76202392578125,237.14857482910156 L470.7810974121094,237.5061798095703 L470.76983642578125,238.14817810058594 L470.7017517089844,239.06304931640625 L470.59326171875,240.17738342285156 L470.45892333984375,241.3501739501953 L470.31561279296875,242.43032836914062 L470.1826477050781,243.29150390625 L470.0771179199219,243.8610076904297 L470.00079345703125,244.07626342773438 L469.9762878417969,243.89703369140625 L470.0278015136719,243.28659057617188 L470.20050048828125,242.26182556152344 L470.5380859375,240.9239044189453 L471.07177734375,239.4517059326172 L471.78485107421875,238.02880859375 L472.62689208984375,236.82000732421875 L473.5297546386719,235.93508911132812 L474.4366455078125,235.43838500976562 L475.2886047363281,235.36044311523438 L476.02972412109375,235.7130584716797 L476.6041259765625,236.46990966796875 L476.9585876464844,237.55880737304688 L477.0771484375,238.84817504882812 L476.9989013671875,240.1562042236328 L476.79730224609375,241.2939453125 L476.5522155761719,242.1107177734375 L476.3368225097656,242.5131378173828 L476.19879150390625,242.46078491210938 L476.18017578125,241.9568634033203 L476.3283386230469,241.04417419433594 L476.6935729980469,239.83880615234375 L477.3033447265625,238.50245666503906 L478.1528015136719,237.204833984375 L479.1961669921875,236.0936737060547 L480.3528747558594,235.27215576171875 L481.525146484375,234.80540466308594 L482.6300048828125,234.75132751464844 L483.5857238769531,235.1329345703125 L484.3363952636719,235.92855834960938 L484.8418273925781,237.07278442382812 L485.0916748046875,238.44712829589844 L485.10797119140625,239.9080352783203 L484.9488830566406,241.32586669921875 L484.6797180175781,242.56869506835938 L484.3816833496094,243.54393005371094 L484.1413879394531,244.17449951171875 L483.9976806640625,244.48739624023438 M497.64642333984375,239.89349365234375 L497.7323913574219,239.54351806640625 L497.9305114746094,238.85531616210938 L498.2530822753906,237.799072265625 L498.6791687011719,236.44830322265625 L499.1661071777344,234.85244750976562 L499.65277099609375,233.0872039794922 L500.09112548828125,231.24623107910156 L500.44000244140625,229.45252990722656 L500.66412353515625,227.84170532226562 L500.7659912109375,226.53561401367188 L500.7606506347656,225.61990356445312 L500.6726379394531,225.14984130859375 L500.51910400390625,225.17071533203125 L500.3139343261719,225.71859741210938 L500.0652160644531,226.8147430419922 L499.79681396484375,228.4259490966797 L499.5327453613281,230.4563446044922 L499.29815673828125,232.75933837890625 L499.08306884765625,235.1680908203125 L498.8914489746094,237.5143280029297 L498.7215270996094,239.6260986328125 L498.5848083496094,241.35128784179688 L498.48944091796875,242.58966064453125 L498.4404296875,243.2998504638672 L498.4293518066406,243.48980712890625 L498.4783020019531,243.19671630859375 L498.6256103515625,242.44483947753906 L498.92169189453125,241.2871551513672 L499.40496826171875,239.8466339111328 L500.0830078125,238.29232788085938 L500.9372863769531,236.8080596923828 L501.9075622558594,235.5616912841797 L502.91510009765625,234.66180419921875 L503.86346435546875,234.16329956054688 L504.67572021484375,234.10545349121094 L505.2862854003906,234.48614501953125 L505.6651916503906,235.27088928222656 L505.7972717285156,236.3934783935547 L505.713134765625,237.74539184570312 L505.492431640625,239.19862365722656 L505.2521667480469,240.60609436035156 L505.0877380371094,241.8291473388672 L505.0233154296875,242.68975830078125 L505.02667236328125,243.158935546875 M511.8006286621094,235.8411865234375 L511.6817626953125,235.5567626953125 L511.4161682128906,235.2083282470703 L510.9658203125,234.95970153808594 L510.34246826171875,235.0191650390625 L509.5910949707031,235.45143127441406 L508.784423828125,236.25086975097656 L508.0378723144531,237.3408966064453 L507.4632568359375,238.61782836914062 L507.1512145996094,239.94422912597656 L507.13128662109375,241.1589813232422 L507.3876953125,242.12408447265625 L507.86859130859375,242.7424774169922 L508.5147399902344,242.9551239013672 L509.2674560546875,242.739501953125 L510.0697021484375,242.11093139648438 L510.8345947265625,241.11080932617188 L511.48797607421875,239.83714294433594 L511.9791259765625,238.45228576660156 L512.2841796875,237.12217712402344 L512.42822265625,236.00537109375 L512.4605712890625,235.1962127685547 L512.4335327148438,234.70730590820312 L512.3947143554688,234.4770050048828 L512.370849609375,234.41253662109375 M514.626953125,234.36322021484375 L514.6669921875,234.36245727539062 L514.7330322265625,234.47999572753906 L514.8177490234375,234.83355712890625 L514.882568359375,235.5186309814453 L514.8988037109375,236.5423583984375 L514.8314208984375,237.8478240966797 L514.6864624023438,239.3264923095703 L514.4925537109375,240.82374572753906 L514.314697265625,242.1851043701172 L514.1881713867188,243.26278686523438 L514.1343994140625,243.93553161621094 L514.1414184570312,244.1328125 L514.2060546875,243.83543395996094 L514.3272094726562,243.05499267578125 L514.5489501953125,241.8734588623047 L514.904541015625,240.42001342773438 L515.4277954101562,238.86341857910156 L516.1129760742188,237.38278198242188 L516.9146118164062,236.13172912597656 L517.7500610351562,235.2279052734375 L518.5421752929688,234.74612426757812 L519.2185668945312,234.72372436523438 L519.7423706054688,235.15989685058594 L520.0849609375,236.00387573242188 L520.2269287109375,237.1531982421875 L520.1691284179688,238.4746551513672 L519.9379272460938,239.7936553955078 L519.599609375,240.96536254882812 L519.2498779296875,241.87326049804688 L518.9683227539062,242.4241485595703 L518.817138671875,242.55360412597656 L518.8304443359375,242.22003173828125 L519.0272216796875,241.40309143066406 L519.4324340820312,240.18699645996094 L520.05615234375,238.7352294921875 L520.8763427734375,237.24893188476562 L521.8333129882812,235.9232635498047 L522.8343505859375,234.8944854736328 L523.7865600585938,234.22784423828125 L524.6190185546875,233.96688842773438 L525.287109375,234.1261444091797 L525.772705078125,234.6966094970703 L526.0587768554688,235.6355743408203 L526.1443481445312,236.85450744628906 L526.0381469726562,238.2267608642578 L525.7891235351562,239.6082763671875 L525.47509765625,240.8644561767578 L525.2034301757812,241.846435546875 L525.053466796875,242.44955444335938 L525.0653686523438,242.64227294921875 L525.16357421875,242.57315063476562 L525.2728881835938,242.41180419921875 M527.7698974609375,239.2330322265625 L527.95849609375,239.2078094482422 L528.3189697265625,239.13632202148438 L528.8560791015625,238.9827423095703 L529.53271484375,238.71075439453125 L530.3121337890625,238.285400390625 L531.1395874023438,237.68955993652344 L531.9642333984375,236.93589782714844 L532.7047119140625,236.07015991210938 L533.2692260742188,235.17210388183594 L533.5904541015625,234.33729553222656 L533.606201171875,233.66282653808594 L533.3013305664062,233.2301788330078 L532.7169799804688,233.1100616455078 L531.9183959960938,233.33734130859375 L530.9994506835938,233.92408752441406 L530.0750732421875,234.83932495117188 L529.261474609375,236.0103759765625 L528.653564453125,237.32455444335938 L528.3348999023438,238.66319274902344 L528.3596801757812,239.9072723388672 L528.75439453125,240.9634246826172 L529.5054931640625,241.76950073242188 L530.552001953125,242.29843139648438 L531.82568359375,242.51559448242188 L533.2134399414062,242.43295288085938 L534.5916748046875,242.1049041748047 L535.6754760742188,241.72145080566406 L536.337646484375,241.4251251220703 M537.6275634765625,237.21090698242188 L537.932861328125,237.23831176757812 L538.55908203125,237.2592010498047 L539.50634765625,237.2489776611328 L540.6864013671875,237.17446899414062 L541.9719848632812,237.03990173339844 L543.2203369140625,236.8541259765625 L544.1790771484375,236.6807098388672 L544.7550659179688,236.5609893798828 M549.802978515625,227.1328887939453 L549.879638671875,227.3030242919922 L549.9876708984375,227.70431518554688 L550.0755615234375,228.4083709716797 L550.0695190429688,229.42324829101562 L549.9437255859375,230.73043823242188 L549.7088012695312,232.28094482421875 L549.4075927734375,234.00003051757812 L549.09130859375,235.79888916015625 L548.7911376953125,237.5505828857422 L548.5216064453125,239.11126708984375 L548.305908203125,240.36355590820312 L548.1485595703125,241.2356414794922 L548.0538330078125,241.69296264648438 L548.0230102539062,241.74490356445312 L548.0543212890625,241.3974151611328 L548.16357421875,240.6681671142578 L548.392333984375,239.62522888183594 L548.7640991210938,238.37423706054688 L549.3048706054688,237.0409698486328 L550.023193359375,235.760009765625 L550.8995361328125,234.64219665527344 L551.90234375,233.77545166015625 L552.9874267578125,233.24154663085938 L554.079345703125,233.0895233154297 L555.1104736328125,233.33555603027344 L556.0089111328125,233.9609375 L556.6943359375,234.9088134765625 L557.1044921875,236.09056091308594 L557.20068359375,237.3982391357422 L556.962890625,238.7135772705078 L556.4185791015625,239.92271423339844 L555.6162109375,240.93663024902344 L554.611572265625,241.6966552734375 L553.4814453125,242.1795196533203 L552.2984619140625,242.3894805908203 L551.1522216796875,242.32949829101562 L550.1546630859375,242.0370330810547 L549.4024658203125,241.58148193359375 L548.94677734375,241.1421356201172 L548.750732421875,240.8377685546875 M562.9453735351562,236.75103759765625 L562.9383544921875,236.44920349121094 L562.8298950195312,235.9759063720703 L562.5355224609375,235.42002868652344 L561.9896240234375,234.9571990966797 L561.1932983398438,234.6887664794922 L560.1964111328125,234.71148681640625 L559.093994140625,235.07745361328125 L558.0119018554688,235.8028564453125 L557.0934448242188,236.83265686035156 L556.4657592773438,238.05804443359375 L556.222900390625,239.33164978027344 L556.4033813476562,240.51173400878906 L556.9818115234375,241.465087890625 L557.8822021484375,242.08741760253906 L558.9981689453125,242.29922485351562 L560.2064208984375,242.07049560546875 L561.3868408203125,241.4175262451172 L562.4293212890625,240.41737365722656 L563.228515625,239.1787872314453 L563.6944580078125,237.83900451660156 L563.81396484375,236.550537109375 L563.6483154296875,235.45303344726562 L563.382080078125,234.69754028320312 L563.164794921875,234.3013916015625 M566.8773193359375,234.1278076171875 L566.7991943359375,234.297607421875 L566.6456909179688,234.703857421875 L566.4251098632812,235.41110229492188 L566.1834716796875,236.4051971435547 L565.9755859375,237.61895751953125 L565.8712768554688,238.9407196044922 L565.9366455078125,240.23028564453125 L566.209228515625,241.34494018554688 L566.7012329101562,242.15042114257812 L567.3922119140625,242.5471649169922 L568.2364501953125,242.47689819335938 L569.1940307617188,241.9371337890625 L570.2109375,240.97227478027344 L571.2017822265625,239.681884765625 L572.0858154296875,238.2246856689453 L572.78369140625,236.78118896484375 L573.2510986328125,235.5113983154297 L573.511474609375,234.52992248535156 L573.594970703125,233.89846801757812 L573.544921875,233.6607208251953 L573.4048461914062,233.85910034179688 L573.20849609375,234.5012664794922 L572.992431640625,235.5361328125 L572.8221435546875,236.8643035888672 L572.7349853515625,238.31211853027344 L572.7568359375,239.70176696777344 L572.8362426757812,240.75326538085938 L572.9195556640625,241.3662567138672 M576.9061889648438,234.41595458984375 L576.9110107421875,234.54359436035156 L576.9030151367188,234.90472412109375 L576.8612060546875,235.58401489257812 L576.7618408203125,236.56948852539062 L576.59521484375,237.75755310058594 L576.3754272460938,238.9953155517578 L576.1396484375,240.13107299804688 L575.9193115234375,241.05105590820312 L575.746826171875,241.67811584472656 L575.6412353515625,241.96340942382812 L575.6165771484375,241.8885955810547 L575.6910400390625,241.4461212158203 L575.90234375,240.65951538085938 L576.2738037109375,239.59716796875 L576.83056640625,238.35641479492188 L577.5785522460938,237.06947326660156 L578.4896850585938,235.8841094970703 L579.5029296875,234.92466735839844 L580.548828125,234.28482055664062 L581.5263671875,234.02664184570312 L582.3365478515625,234.16006469726562 L582.902587890625,234.6649627685547 L583.1791381835938,235.49168395996094 L583.16845703125,236.5639190673828 L582.9342041015625,237.78106689453125 L582.570556640625,239.03907775878906 L582.170654296875,240.23536682128906 L581.8550415039062,241.25656127929688 L581.7095947265625,242.00759887695312 L581.771240234375,242.44314575195312 L581.9407958984375,242.61514282226562 L582.1156005859375,242.62911987304688 M590.054443359375,237.43006896972656 L590.0048828125,237.16354370117188 L589.8631591796875,236.76400756835938 L589.582275390625,236.3195343017578 L589.1339111328125,235.99581909179688 L588.508056640625,235.88270568847656 L587.7208251953125,236.034912109375 L586.82861328125,236.4710235595703 L585.922607421875,237.18405151367188 L585.1170654296875,238.11679077148438 L584.5181884765625,239.1944580078125 L584.19775390625,240.31968688964844 L584.1939697265625,241.3693084716797 L584.5076293945312,242.2138214111328 L585.120849609375,242.7384490966797 L585.9931640625,242.8533935546875 L587.0580444335938,242.5146026611328 L588.2360229492188,241.7275390625 L589.44677734375,240.53330993652344 L590.608642578125,238.9990997314453 L591.6619262695312,237.23214721679688 L592.559814453125,235.3592987060547 L593.27197265625,233.51382446289062 L593.7965087890625,231.8176727294922 L594.1527099609375,230.37290954589844 L594.365234375,229.25184631347656 L594.4661254882812,228.51434326171875 L594.4696044921875,228.20986938476562 L594.3771362304688,228.36538696289062 L594.187255859375,228.981689453125 L593.9063720703125,230.03533935546875 L593.5574951171875,231.4562225341797 L593.190673828125,233.14013671875 L592.8607177734375,234.97686767578125 L592.61328125,236.84912109375 L592.474853515625,238.66029357910156 L592.440673828125,240.33538818359375 L592.4896240234375,241.78863525390625 L592.5909423828125,242.94381713867188 L592.691650390625,243.70606994628906 L592.76025390625,244.0942840576172 " fill="none" stroke="black" stroke-linecap="round" stroke-width="2" /></svg>